<svg width="21" height="24" viewBox="0 0 21 24" fill="none" xmlns="http://www.w3.org/2000/svg">
<g clip-path="url(#clip0_86_632)">
<path d="M9.37847 32.8615C7.48492 32.8615 5.60714 32.0392 4.32617 30.4558L5.82185 29.2456C7.40603 31.2031 10.287 31.507 12.2444 29.924C14.2022 28.3402 14.5062 25.4589 12.9228 23.5011L6.92234 16.0846L8.41803 14.8745L14.4185 22.2909C16.6695 25.073 16.2374 29.1683 13.4546 31.4197C12.2559 32.3897 10.8126 32.8611 9.37847 32.8615Z" fill="white"/>
<path d="M12.4748 30.9115L2.52758 18.5435C-1.41883 13.6655 -0.660797 6.48302 4.21988 2.53507C6.58404 0.622277 9.54846 -0.254275 12.5756 0.063947C15.5904 0.382169 18.3021 1.85207 20.2141 4.20391L21.061 5.1378L16.7975 8.89836C16.7552 8.9403 16.7117 8.98147 16.7009 8.99109L15.9479 9.66063L15.3142 8.8772C13.73 6.91977 10.8491 6.61502 8.89124 8.19881C7.94274 8.96609 7.34977 10.0566 7.22163 11.2702C7.09388 12.4831 7.44559 13.6736 8.21286 14.6221L14.2129 22.0382L12.7172 23.2484L6.71718 15.8323C4.46577 13.0495 4.89827 8.95454 7.68107 6.70351C10.1961 4.66797 13.785 4.8265 16.1141 6.93246L18.3371 4.97349C16.7787 3.27887 14.6831 2.22148 12.3732 1.97752C9.8586 1.71124 7.39441 2.44158 5.42967 4.03076C1.37436 7.31187 0.74408 13.2807 4.02519 17.3361L13.9739 29.7059L12.4748 30.9115Z" fill="white"/>
<path d="M9.71148 38C9.30784 38 8.90189 37.9784 8.49478 37.9357C5.48033 37.6175 2.76871 36.1476 0.856685 33.7958L0.00976562 32.8619L4.2667 29.1079C4.3148 29.0598 4.36674 29.0105 4.37944 28.9997L5.13133 28.3494L5.75661 29.1225C6.52388 30.071 7.61438 30.664 8.82801 30.7921C10.042 30.9179 11.2314 30.5678 12.1795 29.8009L13.3897 31.2966C12.0422 32.3874 10.3522 32.8869 8.626 32.7053C7.24075 32.5591 5.96863 31.9869 4.95624 31.0684L2.73408 33.0266C4.29209 34.7216 6.38728 35.7786 8.69718 36.0226C11.2083 36.2869 13.6756 35.5585 15.6407 33.9693C17.6051 32.3797 18.8337 30.1206 19.0988 27.6076C19.364 25.0949 18.6348 22.6288 17.0456 20.664L7.09684 8.29417L8.59598 7.08862L18.5432 19.4566C20.4541 21.8184 21.3314 24.7859 21.012 27.81C20.693 30.834 19.215 33.553 16.8509 35.4654C14.805 37.12 12.3069 38 9.71148 38Z" fill="white"/>
</g>
<defs>
<clipPath id="clip0_86_632">
<rect width="21" height="24" fill="white"/>
</clipPath>
</defs>
</svg>
