<svg width="65" height="64" viewBox="0 0 65 64" fill="none" xmlns="http://www.w3.org/2000/svg">
<g opacity="0.9" clip-path="url(#clip0_275_72)">
<path d="M33.7418 36.4355H41.8203C44.1177 36.4355 45.5713 35.1722 45.5713 33.1423C45.5713 31.2282 44.1177 29.8492 41.8203 29.8492H33.7418C33.4742 29.8492 33.2452 30.0782 33.2452 30.3097V35.9749C33.2813 36.2425 33.4716 36.4355 33.7418 36.4355ZM33.7418 49.4896H42.0878C44.6529 49.4896 46.1837 48.1878 46.1837 45.8903C46.1837 43.899 44.73 42.2911 42.0878 42.2911H33.7418C33.4742 42.2911 33.2452 42.52 33.2452 42.7516V48.9931C33.2813 49.2993 33.4716 49.4896 33.7418 49.4896Z" fill="#34313F"/>
<path d="M63.2976 0.141528L39.407 23.955H43.3124C49.3996 23.955 52.9989 27.7833 52.9989 31.9563C52.9989 35.2494 50.7786 37.6601 48.4039 38.7329C48.0206 38.8873 48.0206 39.4224 48.4425 39.5742C51.1979 40.6471 53.1507 43.5183 53.1507 46.886C53.1507 51.6328 49.9733 55.4224 43.809 55.4224H26.8879C26.6204 55.4224 26.3914 55.1935 26.3914 54.9619V36.9294L0.164655 63.043C-0.180095 63.3877 0.048881 64 0.547997 64H63.6038C63.8328 64 64.0257 63.8096 64.0257 63.5781V0.486278C64.1389 0.0643449 63.6038 -0.164631 63.2976 0.141528Z" fill="#34313F"/>
</g>
<defs>
<clipPath id="clip0_275_72">
<rect width="64.0412" height="64" fill="white"/>
</clipPath>
</defs>
</svg>
