<svg width="18" height="26" viewBox="0 0 18 26" fill="none" xmlns="http://www.w3.org/2000/svg">
<g clip-path="url(#clip0_288_84)">
<path d="M4.33504 26C6.72704 26 8.66837 24.0586 8.66837 21.6666V17.3333H4.33504C1.94304 17.3333 0.00170898 19.2746 0.00170898 21.6666C0.00170898 24.0586 1.94304 26 4.33504 26Z" fill="#0ACF83"/>
<path d="M0.00170898 13C0.00170898 10.608 1.94304 8.66669 4.33504 8.66669H8.66837V17.3334H4.33504C1.94304 17.3334 0.00170898 15.392 0.00170898 13Z" fill="#A259FF"/>
<path d="M0.00170898 4.33333C0.00170898 1.94133 1.94304 0 4.33504 0H8.66837V8.66667H4.33504C1.94304 8.66667 0.00170898 6.72533 0.00170898 4.33333Z" fill="#F24E1E"/>
<path d="M8.66846 0H13.0018C15.3938 0 17.3351 1.94133 17.3351 4.33333C17.3351 6.72533 15.3938 8.66667 13.0018 8.66667H8.66846V0Z" fill="#FF7262"/>
<path d="M17.3351 13C17.3351 15.392 15.3938 17.3334 13.0018 17.3334C10.6098 17.3334 8.66846 15.392 8.66846 13C8.66846 10.608 10.6098 8.66669 13.0018 8.66669C15.3938 8.66669 17.3351 10.608 17.3351 13Z" fill="#1ABCFE"/>
</g>
<defs>
<clipPath id="clip0_288_84">
<rect width="17.3368" height="26" fill="white"/>
</clipPath>
</defs>
</svg>
