<svg width="1386" height="220" viewBox="0 0 1386 220" fill="none" xmlns="http://www.w3.org/2000/svg">
<mask id="path-1-outside-1_4121_8497" maskUnits="userSpaceOnUse" x="9.31769" y="3.06308" width="1120" height="213" fill="black">
<rect fill="white" x="9.31769" y="3.06308" width="1120" height="213"/>
<path fill-rule="evenodd" clip-rule="evenodd" d="M89.0365 215.676C69.4054 215.676 52.6898 211.207 38.8897 202.268C25.284 193.33 15.76 181.088 10.3177 165.542L39.1812 148.636C47.3447 171.566 64.2546 183.031 89.9111 183.031C102.545 183.031 111.972 180.602 118.192 175.744C124.606 170.692 127.813 164.182 127.813 156.215C127.813 147.859 124.411 141.544 117.608 137.269C110.806 132.799 98.7549 127.941 81.4562 122.695C71.7378 119.78 63.8659 117.06 57.8405 114.533C51.8151 112.007 45.401 108.509 38.5981 104.04C31.9897 99.3765 27.0333 93.6441 23.729 86.8429C20.4248 80.0418 18.7727 72.0747 18.7727 62.9417C18.7727 44.8701 25.1868 30.5876 38.015 20.0944C50.8433 9.40685 66.2955 4.06308 84.3717 4.06308C100.699 4.06308 114.985 8.04662 127.23 16.0137C139.475 23.9808 148.902 34.9598 155.51 48.9508L127.23 65.2735C118.678 46.2303 104.391 36.7087 84.3717 36.7087C74.6533 36.7087 66.8786 39.0405 61.0476 43.7041C55.2166 48.1735 52.301 54.2945 52.301 62.0673C52.301 69.6457 55.2166 75.6696 61.0476 80.1389C67.073 84.414 77.8604 88.9804 93.4097 93.8384C101.184 96.3646 106.821 98.3078 110.32 99.668C114.013 100.834 119.066 102.777 125.48 105.498C132.089 108.218 137.045 110.938 140.349 113.659C143.654 116.379 147.152 119.78 150.845 123.861C154.733 127.941 157.454 132.605 159.009 137.852C160.564 143.098 161.341 149.025 161.341 155.632C161.341 174.092 154.635 188.763 141.224 199.645C128.007 210.333 110.611 215.676 89.0365 215.676ZM576.322 170.789L582.812 189.459L590.683 211.887H626.76L552.998 7.8523H512.764L438.71 211.887H474.991L474.996 211.873H537.807L526.501 179.729H486.303L488.731 172.827L489.44 170.789L532.881 47.2019L565.243 139.309H565.211L576.259 170.789H576.322ZM787.839 137.56L795.854 151.366L831.037 211.808H830.943L830.989 211.887H867.724L821.368 132.605C833.418 127.747 843.137 119.974 850.523 109.287C858.103 98.4049 861.893 86.4543 861.893 73.4349C861.893 55.169 855.479 39.7206 842.651 27.0899C830.017 14.2648 814.565 7.8523 796.294 7.8523H714.66V211.887H748.188V137.56H748.21V129.412H748.2V107.538H748.188V39.332H796.294C805.235 39.332 812.815 42.6354 819.035 49.2422C825.255 55.8491 828.365 63.9133 828.365 73.4349C828.365 82.9566 825.255 91.0208 819.035 97.6276C812.815 104.234 805.235 107.538 796.294 107.538H785.092V129.412H784.933V132.605L787.818 137.56H787.839ZM1092.45 211.887H1128.52L1054.75 7.8523H1014.52L940.466 211.887H976.761L976.766 211.873H1039.58L1028.27 179.729H988.073L989.346 176.109L991.196 170.789H991.218L1002.29 139.309H1002.27L1034.64 47.2019L1034.66 47.2801L1034.67 47.255L1067 139.309H1066.98L1078.03 170.789H1078.08L1083.15 185.375L1092.45 211.887ZM381.434 7.94029V7.8523H232.743V7.90206H221.395L232.7 39.9674H290.47V211.887H323.999V39.9679H392.727L381.434 7.94029Z"/>
</mask>
<path fill-rule="evenodd" clip-rule="evenodd" d="M89.0365 215.676C69.4054 215.676 52.6898 211.207 38.8897 202.268C25.284 193.33 15.76 181.088 10.3177 165.542L39.1812 148.636C47.3447 171.566 64.2546 183.031 89.9111 183.031C102.545 183.031 111.972 180.602 118.192 175.744C124.606 170.692 127.813 164.182 127.813 156.215C127.813 147.859 124.411 141.544 117.608 137.269C110.806 132.799 98.7549 127.941 81.4562 122.695C71.7378 119.78 63.8659 117.06 57.8405 114.533C51.8151 112.007 45.401 108.509 38.5981 104.04C31.9897 99.3765 27.0333 93.6441 23.729 86.8429C20.4248 80.0418 18.7727 72.0747 18.7727 62.9417C18.7727 44.8701 25.1868 30.5876 38.015 20.0944C50.8433 9.40685 66.2955 4.06308 84.3717 4.06308C100.699 4.06308 114.985 8.04662 127.23 16.0137C139.475 23.9808 148.902 34.9598 155.51 48.9508L127.23 65.2735C118.678 46.2303 104.391 36.7087 84.3717 36.7087C74.6533 36.7087 66.8786 39.0405 61.0476 43.7041C55.2166 48.1735 52.301 54.2945 52.301 62.0673C52.301 69.6457 55.2166 75.6696 61.0476 80.1389C67.073 84.414 77.8604 88.9804 93.4097 93.8384C101.184 96.3646 106.821 98.3078 110.32 99.668C114.013 100.834 119.066 102.777 125.48 105.498C132.089 108.218 137.045 110.938 140.349 113.659C143.654 116.379 147.152 119.78 150.845 123.861C154.733 127.941 157.454 132.605 159.009 137.852C160.564 143.098 161.341 149.025 161.341 155.632C161.341 174.092 154.635 188.763 141.224 199.645C128.007 210.333 110.611 215.676 89.0365 215.676ZM576.322 170.789L582.812 189.459L590.683 211.887H626.76L552.998 7.8523H512.764L438.71 211.887H474.991L474.996 211.873H537.807L526.501 179.729H486.303L488.731 172.827L489.44 170.789L532.881 47.2019L565.243 139.309H565.211L576.259 170.789H576.322ZM787.839 137.56L795.854 151.366L831.037 211.808H830.943L830.989 211.887H867.724L821.368 132.605C833.418 127.747 843.137 119.974 850.523 109.287C858.103 98.4049 861.893 86.4543 861.893 73.4349C861.893 55.169 855.479 39.7206 842.651 27.0899C830.017 14.2648 814.565 7.8523 796.294 7.8523H714.66V211.887H748.188V137.56H748.21V129.412H748.2V107.538H748.188V39.332H796.294C805.235 39.332 812.815 42.6354 819.035 49.2422C825.255 55.8491 828.365 63.9133 828.365 73.4349C828.365 82.9566 825.255 91.0208 819.035 97.6276C812.815 104.234 805.235 107.538 796.294 107.538H785.092V129.412H784.933V132.605L787.818 137.56H787.839ZM1092.45 211.887H1128.52L1054.75 7.8523H1014.52L940.466 211.887H976.761L976.766 211.873H1039.58L1028.27 179.729H988.073L989.346 176.109L991.196 170.789H991.218L1002.29 139.309H1002.27L1034.64 47.2019L1034.66 47.2801L1034.67 47.255L1067 139.309H1066.98L1078.03 170.789H1078.08L1083.15 185.375L1092.45 211.887ZM381.434 7.94029V7.8523H232.743V7.90206H221.395L232.7 39.9674H290.47V211.887H323.999V39.9679H392.727L381.434 7.94029Z" fill="#141414"/>
<path d="M988.073 179.829H988.702V179.629H988.073V179.829ZM486.303 179.829H486.932V179.629H486.303V179.829ZM38.8897 202.268L38.7799 202.436L38.781 202.436L38.8897 202.268ZM10.3177 165.542L10.2166 165.37L10.0745 165.453L10.1289 165.608L10.3177 165.542ZM39.1812 148.636L39.3697 148.569L39.2886 148.342L39.0802 148.464L39.1812 148.636ZM118.192 175.744L118.315 175.901L118.315 175.901L118.192 175.744ZM117.608 137.269L117.499 137.436L117.502 137.438L117.608 137.269ZM81.4562 122.695L81.5142 122.503L81.5136 122.503L81.4562 122.695ZM57.8405 114.533L57.9178 114.349L57.9178 114.349L57.8405 114.533ZM38.5981 104.04L38.4828 104.204L38.4883 104.207L38.5981 104.04ZM38.015 20.0944L38.1417 20.2492L38.1431 20.2481L38.015 20.0944ZM127.23 16.0137L127.339 15.8461L127.339 15.8461L127.23 16.0137ZM155.51 48.9508L155.61 49.124L155.77 49.0319L155.691 48.8653L155.51 48.9508ZM127.23 65.2735L127.047 65.3555L127.138 65.5574L127.33 65.4468L127.23 65.2735ZM61.0476 43.7041L61.1693 43.8629L61.1725 43.8603L61.0476 43.7041ZM61.0476 80.1389L60.9258 80.2978L60.9318 80.3021L61.0476 80.1389ZM93.4097 93.8384L93.4716 93.6482L93.4694 93.6475L93.4097 93.8384ZM110.32 99.668L110.247 99.8548L110.26 99.8587L110.32 99.668ZM125.48 105.498L125.402 105.682L125.404 105.682L125.48 105.498ZM150.845 123.861L150.697 123.995L150.7 123.999L150.845 123.861ZM141.224 199.645L141.35 199.801L141.35 199.8L141.224 199.645ZM582.812 189.459L582.623 189.525L582.623 189.526L582.812 189.459ZM576.322 170.789L576.511 170.723L576.464 170.589H576.322V170.789ZM590.683 211.887L590.494 211.953L590.541 212.087H590.683V211.887ZM626.76 211.887V212.087H627.045L626.948 211.819L626.76 211.887ZM552.998 7.8523L553.186 7.7843L553.138 7.6523H552.998V7.8523ZM512.764 7.8523V7.6523H512.623L512.576 7.78407L512.764 7.8523ZM438.71 211.887L438.522 211.819L438.424 212.087H438.71V211.887ZM474.991 211.887V212.087H475.133L475.18 211.953L474.991 211.887ZM474.996 211.873V211.673H474.854L474.807 211.807L474.996 211.873ZM537.807 211.873V212.073H538.089L537.996 211.807L537.807 211.873ZM526.501 179.729L526.69 179.663L526.643 179.529H526.501V179.729ZM486.303 179.729L486.115 179.663L486.021 179.929H486.303V179.729ZM488.731 172.827L488.92 172.893L488.92 172.893L488.731 172.827ZM489.44 170.789L489.251 170.722L489.251 170.723L489.44 170.789ZM532.881 47.2019L533.069 47.1356L532.881 46.5987L532.692 47.1356L532.881 47.2019ZM565.243 139.309V139.509H565.525L565.432 139.243L565.243 139.309ZM565.211 139.309V139.109H564.929L565.022 139.375L565.211 139.309ZM576.259 170.789L576.07 170.855L576.117 170.989H576.259V170.789ZM795.854 151.366L795.681 151.467L795.681 151.467L795.854 151.366ZM787.839 137.56L788.012 137.46L787.954 137.36H787.839V137.56ZM831.037 211.808V212.008H831.385L831.21 211.707L831.037 211.808ZM830.943 211.808V211.608H830.595L830.77 211.908L830.943 211.808ZM830.989 211.887L830.816 211.988L830.874 212.087H830.989V211.887ZM867.724 211.887V212.087H868.073L867.897 211.786L867.724 211.887ZM821.368 132.605L821.293 132.42L821.078 132.506L821.195 132.706L821.368 132.605ZM850.523 109.287L850.359 109.172L850.358 109.173L850.523 109.287ZM842.651 27.0899L842.508 27.2303L842.511 27.2324L842.651 27.0899ZM714.66 7.8523V7.6523H714.46V7.8523H714.66ZM714.66 211.887H714.46V212.087H714.66V211.887ZM748.188 211.887V212.087H748.388V211.887H748.188ZM748.188 137.56V137.36H747.988V137.56H748.188ZM748.21 137.56V137.76H748.41V137.56H748.21ZM748.21 129.412H748.41V129.212H748.21V129.412ZM748.2 129.412H748V129.612H748.2V129.412ZM748.2 107.538H748.4V107.338H748.2V107.538ZM748.188 107.538H747.988V107.738H748.188V107.538ZM748.188 39.332V39.132H747.988V39.332H748.188ZM819.035 49.2422L819.181 49.1051L819.181 49.1051L819.035 49.2422ZM819.035 97.6276L819.181 97.7647L819.181 97.7647L819.035 97.6276ZM785.092 107.538V107.338H784.892V107.538H785.092ZM785.092 129.412V129.612H785.292V129.412H785.092ZM784.933 129.412V129.212H784.733V129.412H784.933ZM784.933 132.605H784.733V132.659L784.76 132.706L784.933 132.605ZM787.818 137.56L787.645 137.661L787.703 137.76H787.818V137.56ZM1128.52 211.887V212.087H1128.8L1128.7 211.819L1128.52 211.887ZM1092.45 211.887L1092.26 211.953L1092.31 212.087H1092.45V211.887ZM1054.75 7.8523L1054.94 7.7843L1054.89 7.6523H1054.75V7.8523ZM1014.52 7.8523V7.6523H1014.38L1014.33 7.78407L1014.52 7.8523ZM940.466 211.887L940.278 211.819L940.18 212.087H940.466V211.887ZM976.761 211.887V212.087H976.902L976.949 211.954L976.761 211.887ZM976.766 211.873V211.673H976.624L976.577 211.806L976.766 211.873ZM1039.58 211.873V212.073H1039.86L1039.77 211.807L1039.58 211.873ZM1028.27 179.729L1028.46 179.663L1028.41 179.529H1028.27V179.729ZM988.073 179.729L987.884 179.663L987.79 179.929H988.073V179.729ZM989.346 176.109L989.535 176.176L989.535 176.175L989.346 176.109ZM991.196 170.789V170.589H991.053L991.007 170.723L991.196 170.789ZM991.218 170.789V170.989H991.359L991.406 170.855L991.218 170.789ZM1002.29 139.309L1002.48 139.375L1002.57 139.109H1002.29V139.309ZM1002.27 139.309L1002.09 139.243L1001.99 139.509H1002.27V139.309ZM1034.64 47.2019L1034.83 47.1353L1034.64 46.5997L1034.45 47.1356L1034.64 47.2019ZM1034.66 47.2801L1034.48 47.3466L1034.66 47.8831L1034.85 47.3462L1034.66 47.2801ZM1034.67 47.255L1034.86 47.1887L1034.67 46.6508L1034.48 47.1889L1034.67 47.255ZM1067 139.309V139.509H1067.28L1067.19 139.243L1067 139.309ZM1066.98 139.309V139.109H1066.7L1066.79 139.375L1066.98 139.309ZM1078.03 170.789L1077.84 170.855L1077.89 170.989H1078.03V170.789ZM1078.08 170.789L1078.27 170.723L1078.22 170.589H1078.08V170.789ZM1083.15 185.375L1082.96 185.441L1082.96 185.442L1083.15 185.375ZM381.434 7.8523H381.634V7.6523H381.434V7.8523ZM381.434 7.94029H381.234V7.97451L381.246 8.00679L381.434 7.94029ZM232.743 7.8523V7.6523H232.543V7.8523H232.743ZM232.743 7.90206V8.10206H232.943V7.90206H232.743ZM221.395 7.90206V7.70206H221.112L221.206 7.96856L221.395 7.90206ZM232.7 39.9674L232.512 40.0339L232.559 40.1674H232.7V39.9674ZM290.47 39.9674H290.67V39.7674H290.47V39.9674ZM290.47 211.887H290.27V212.087H290.47V211.887ZM323.999 211.887V212.087H324.199V211.887H323.999ZM323.999 39.9679V39.7679H323.799V39.9679H323.999ZM392.727 39.9679V40.1679H393.009L392.915 39.9014L392.727 39.9679ZM38.781 202.436C52.6193 211.4 69.3744 215.876 89.0365 215.876V215.476C69.4364 215.476 52.7603 211.014 38.9984 202.1L38.781 202.436ZM10.1289 165.608C15.5855 181.195 25.137 193.472 38.7799 202.436L38.9995 202.101C25.431 193.187 15.9344 180.981 10.5065 165.476L10.1289 165.608ZM39.0802 148.464L10.2166 165.37L10.4188 165.715L39.2823 148.809L39.0802 148.464ZM89.9111 182.831C77.1126 182.831 66.5128 179.971 58.0985 174.267C49.6851 168.562 43.4399 160.002 39.3697 148.569L38.9928 148.703C43.086 160.2 49.3775 168.837 57.8741 174.598C66.3697 180.358 77.0531 183.231 89.9111 183.231V182.831ZM118.068 175.586C111.899 180.405 102.525 182.831 89.9111 182.831V183.231C102.565 183.231 112.044 180.799 118.315 175.901L118.068 175.586ZM127.613 156.215C127.613 164.119 124.435 170.571 118.068 175.587L118.315 175.901C124.776 170.812 128.013 164.245 128.013 156.215H127.613ZM117.502 137.438C124.244 141.675 127.613 147.925 127.613 156.215H128.013C128.013 147.794 124.579 141.413 117.715 137.099L117.502 137.438ZM81.3981 122.886C98.6952 128.132 110.722 132.984 117.499 137.436L117.718 137.102C110.889 132.615 98.8145 127.75 81.5142 122.503L81.3981 122.886ZM57.7632 114.718C63.7976 117.248 71.6768 119.971 81.3987 122.886L81.5136 122.503C71.7987 119.589 63.9342 116.871 57.9178 114.349L57.7632 114.718ZM38.4883 104.207C45.2991 108.682 51.7241 112.186 57.7632 114.718L57.9178 114.349C51.9062 111.829 45.5029 108.337 38.708 103.873L38.4883 104.207ZM23.5491 86.9303C26.8692 93.764 31.8487 99.5218 38.4828 104.204L38.7135 103.877C32.1306 99.2312 27.1974 93.5242 23.9089 86.7555L23.5491 86.9303ZM18.5727 62.9417C18.5727 72.0988 20.2292 80.0969 23.5491 86.9303L23.9089 86.7555C20.6204 79.9867 18.9727 72.0506 18.9727 62.9417H18.5727ZM37.8884 19.9396C25.0091 30.4745 18.5727 44.8162 18.5727 62.9417H18.9727C18.9727 44.9239 25.3644 30.7007 38.1417 20.2492L37.8884 19.9396ZM84.3717 3.86308C66.2529 3.86308 50.7543 9.22069 37.887 19.9407L38.1431 20.2481C50.9323 9.59301 66.3381 4.26308 84.3717 4.26308V3.86308ZM127.339 15.8461C115.057 7.85543 100.733 3.86308 84.3717 3.86308V4.26308C100.665 4.26308 114.912 8.23781 127.121 16.1813L127.339 15.8461ZM155.691 48.8653C149.068 34.8429 139.617 23.8346 127.339 15.8461L127.121 16.1813C139.333 24.127 148.736 35.0767 155.329 49.0362L155.691 48.8653ZM127.33 65.4468L155.61 49.124L155.41 48.7775L127.13 65.1003L127.33 65.4468ZM84.3717 36.9087C94.3488 36.9087 102.885 39.2808 109.99 44.0163C117.096 48.7521 122.783 55.8607 127.047 65.3555L127.412 65.1916C123.124 55.6431 117.392 48.4693 110.212 43.6835C103.031 38.8973 94.4143 36.5087 84.3717 36.5087V36.9087ZM61.1725 43.8603C66.9586 39.2326 74.6849 36.9087 84.3717 36.9087V36.5087C74.6217 36.5087 66.7986 38.8484 60.9227 43.548L61.1725 43.8603ZM52.501 62.0673C52.501 54.3525 55.3908 48.2919 61.1692 43.8629L60.9259 43.5454C55.0423 48.0551 52.101 54.2365 52.101 62.0673H52.501ZM61.1692 79.9802C55.3894 75.5501 52.501 69.5858 52.501 62.0673H52.101C52.101 69.7056 55.0437 75.7891 60.9259 80.2977L61.1692 79.9802ZM93.4694 93.6475C77.9218 88.7901 67.1609 84.2311 61.1633 79.9758L60.9318 80.3021C66.985 84.5968 77.7989 89.1708 93.3501 94.0293L93.4694 93.6475ZM110.392 99.4816C106.888 98.1191 101.247 96.1745 93.4716 93.6482L93.3479 94.0286C101.122 96.5546 106.754 98.4964 110.247 99.8544L110.392 99.4816ZM125.558 105.313C119.142 102.592 114.082 100.646 110.38 99.4773L110.26 99.8587C113.943 101.022 118.99 102.962 125.402 105.682L125.558 105.313ZM140.477 113.505C137.15 110.766 132.173 108.036 125.556 105.313L125.404 105.682C132.005 108.4 136.94 111.111 140.222 113.813L140.477 113.505ZM150.994 123.726C147.296 119.641 143.79 116.233 140.477 113.505L140.222 113.813C143.517 116.526 147.009 119.92 150.697 123.995L150.994 123.726ZM159.201 137.795C157.636 132.517 154.899 127.826 150.99 123.723L150.7 123.999C154.567 128.057 157.271 132.693 158.817 137.908L159.201 137.795ZM161.541 155.632C161.541 149.01 160.762 143.063 159.201 137.795L158.817 137.908C160.365 143.133 161.141 149.04 161.141 155.632H161.541ZM141.35 199.8C154.812 188.878 161.541 174.148 161.541 155.632H161.141C161.141 174.037 154.459 188.649 141.098 199.49L141.35 199.8ZM89.0365 215.876C110.644 215.876 128.089 210.524 141.35 199.801L141.098 199.49C127.926 210.141 110.578 215.476 89.0365 215.476V215.876ZM583.001 189.394L576.511 170.723L576.133 170.854L582.623 189.525L583.001 189.394ZM590.872 211.821L583.001 189.393L582.623 189.526L590.494 211.953L590.872 211.821ZM626.76 211.687H590.683V212.087H626.76V211.687ZM552.81 7.9203L626.572 211.955L626.948 211.819L553.186 7.7843L552.81 7.9203ZM512.764 8.0523H552.998V7.6523H512.764V8.0523ZM438.898 211.955L512.952 7.92054L512.576 7.78407L438.522 211.819L438.898 211.955ZM474.991 211.687H438.71V212.087H474.991V211.687ZM474.807 211.807L474.802 211.822L475.18 211.953L475.185 211.939L474.807 211.807ZM537.807 211.673H474.996V212.073H537.807V211.673ZM526.312 179.795L537.618 211.939L537.996 211.807L526.69 179.663L526.312 179.795ZM486.303 179.929H526.501V179.529H486.303V179.929ZM488.542 172.761L486.115 179.663L486.492 179.795L488.92 172.893L488.542 172.761ZM489.251 170.723L488.542 172.761L488.92 172.893L489.628 170.854L489.251 170.723ZM532.692 47.1356L489.251 170.722L489.628 170.855L533.069 47.2682L532.692 47.1356ZM565.432 139.243L533.069 47.1356L532.692 47.2682L565.054 139.375L565.432 139.243ZM565.211 139.509H565.243V139.109H565.211V139.509ZM576.448 170.722L565.4 139.243L565.022 139.375L576.07 170.855L576.448 170.722ZM576.322 170.589H576.259V170.989H576.322V170.589ZM796.027 151.266L788.012 137.46L787.666 137.661L795.681 151.467L796.027 151.266ZM831.21 211.707L796.027 151.266L795.681 151.467L830.865 211.908L831.21 211.707ZM830.943 212.008H831.037V211.608H830.943V212.008ZM831.162 211.787L831.116 211.707L830.77 211.908L830.816 211.988L831.162 211.787ZM867.724 211.687H830.989V212.087H867.724V211.687ZM821.195 132.706L867.552 211.988L867.897 211.786L821.54 132.504L821.195 132.706ZM850.358 109.173C842.994 119.828 833.307 127.576 821.293 132.42L821.442 132.791C833.529 127.918 843.279 120.12 850.687 109.4L850.358 109.173ZM861.693 73.4349C861.693 86.4126 857.916 98.3235 850.359 109.172L850.687 109.401C858.29 98.4864 862.093 86.496 862.093 73.4349H861.693ZM842.511 27.2324C855.3 39.8249 861.693 55.2217 861.693 73.4349H862.093C862.093 55.1163 855.658 39.6163 842.791 26.9474L842.511 27.2324ZM796.294 8.0523C814.512 8.0523 829.913 14.444 842.508 27.2302L842.793 26.9495C830.121 14.0857 814.617 7.6523 796.294 7.6523V8.0523ZM714.66 8.0523H796.294V7.6523H714.66V8.0523ZM714.86 211.887V7.8523H714.46V211.887H714.86ZM748.188 211.687H714.66V212.087H748.188V211.687ZM747.988 137.56V211.887H748.388V137.56H747.988ZM748.21 137.36H748.188V137.76H748.21V137.36ZM748.01 129.412V137.56H748.41V129.412H748.01ZM748.21 129.212H748.2V129.612H748.21V129.212ZM748.4 129.412V107.538H748V129.412H748.4ZM748.188 107.738H748.2V107.338H748.188V107.738ZM747.988 39.332V107.538H748.388V39.332H747.988ZM796.294 39.132H748.188V39.532H796.294V39.132ZM819.181 49.1051C812.924 42.4588 805.291 39.132 796.294 39.132V39.532C805.179 39.532 812.707 42.812 818.89 49.3793L819.181 49.1051ZM828.565 73.4349C828.565 63.8651 825.437 55.7511 819.181 49.1051L818.89 49.3793C825.072 55.9471 828.165 63.9615 828.165 73.4349H828.565ZM819.181 97.7647C825.437 91.1188 828.565 83.0047 828.565 73.4349H828.165C828.165 82.9084 825.072 90.9228 818.89 97.4905L819.181 97.7647ZM796.294 107.738C805.291 107.738 812.924 104.411 819.181 97.7647L818.89 97.4905C812.707 104.058 805.179 107.338 796.294 107.338V107.738ZM785.092 107.738H796.294V107.338H785.092V107.738ZM784.892 107.538V129.412H785.292V107.538H784.892ZM785.092 129.212H784.933V129.612H785.092V129.212ZM785.133 132.605V129.412H784.733V132.605H785.133ZM787.99 137.46L785.106 132.504L784.76 132.706L787.645 137.661L787.99 137.46ZM787.839 137.36H787.818V137.76H787.839V137.36ZM1128.52 211.687H1092.45V212.087H1128.52V211.687ZM1054.57 7.9203L1128.33 211.955L1128.7 211.819L1054.94 7.7843L1054.57 7.9203ZM1014.52 8.0523H1054.75V7.6523H1014.52V8.0523ZM940.654 211.955L1014.71 7.92054L1014.33 7.78407L940.278 211.819L940.654 211.955ZM976.761 211.687H940.466V212.087H976.761V211.687ZM976.577 211.806L976.572 211.82L976.949 211.954L976.954 211.94L976.577 211.806ZM1039.58 211.673H976.766V212.073H1039.58V211.673ZM1028.08 179.795L1039.39 211.939L1039.77 211.807L1028.46 179.663L1028.08 179.795ZM988.073 179.929H1028.27V179.529H988.073V179.929ZM989.157 176.043L987.884 179.663L988.261 179.795L989.535 176.176L989.157 176.043ZM991.007 170.723L989.157 176.044L989.535 176.175L991.384 170.854L991.007 170.723ZM991.218 170.589H991.196V170.989H991.218V170.589ZM1002.1 139.243L991.029 170.722L991.406 170.855L1002.48 139.375L1002.1 139.243ZM1002.27 139.509H1002.29V139.109H1002.27V139.509ZM1034.45 47.1356L1002.09 139.243L1002.46 139.375L1034.83 47.2682L1034.45 47.1356ZM1034.85 47.2135L1034.83 47.1353L1034.45 47.2684L1034.48 47.3466L1034.85 47.2135ZM1034.48 47.1889L1034.48 47.214L1034.85 47.3462L1034.86 47.3211L1034.48 47.1889ZM1067.19 139.243L1034.86 47.1887L1034.48 47.3213L1066.81 139.375L1067.19 139.243ZM1066.98 139.509H1067V139.109H1066.98V139.509ZM1078.22 170.722L1067.17 139.243L1066.79 139.375L1077.84 170.855L1078.22 170.722ZM1078.08 170.589H1078.03V170.989H1078.08V170.589ZM1083.34 185.31L1078.27 170.723L1077.89 170.854L1082.96 185.441L1083.34 185.31ZM1092.64 211.821L1083.34 185.309L1082.96 185.442L1092.26 211.953L1092.64 211.821ZM381.234 7.8523V7.94029H381.634V7.8523H381.234ZM232.743 8.0523H381.434V7.6523H232.743V8.0523ZM232.943 7.90206V7.8523H232.543V7.90206H232.943ZM221.395 8.10206H232.743V7.70206H221.395V8.10206ZM232.889 39.9009L221.583 7.83555L221.206 7.96856L232.512 40.0339L232.889 39.9009ZM290.47 39.7674H232.7V40.1674H290.47V39.7674ZM290.67 211.887V39.9674H290.27V211.887H290.67ZM323.999 211.687H290.47V212.087H323.999V211.687ZM323.799 39.9679V211.887H324.199V39.9679H323.799ZM392.727 39.7679H323.999V40.1679H392.727V39.7679ZM381.246 8.00679L392.538 40.0344L392.915 39.9014L381.623 7.87378L381.246 8.00679Z" fill="#141414" mask="url(#path-1-outside-1_4121_8497)"/>
<path d="M1332.66 211.936L1332.69 211.986H1332.74H1369.48H1369.65L1369.57 211.836L1323.27 132.653C1335.29 127.785 1344.99 120.014 1352.36 109.343C1359.95 98.4444 1363.75 86.474 1363.75 73.4339C1363.75 55.1419 1357.32 39.668 1344.48 27.0182C1331.82 14.1741 1316.35 7.75127 1298.05 7.75127H1216.42H1216.32V7.85127V211.886V211.986H1216.42H1249.94H1250.04V211.886V137.659H1250.09V137.559V129.412V129.312H1250.03V103.629H1250.04V103.529V39.4309H1298.05C1306.96 39.4309 1314.52 42.7226 1320.72 49.3097C1326.92 55.8971 1330.02 63.9364 1330.02 73.4339C1330.02 82.9314 1326.92 90.9708 1320.72 97.5581C1314.52 104.145 1306.96 107.437 1298.05 107.437H1286.82H1286.72V107.537V129.312H1286.71H1286.61V129.412V132.604V132.631L1286.63 132.654L1332.64 211.707H1332.52L1332.61 211.857L1332.66 211.936Z" fill="#141414" stroke="#141414" stroke-width="0.2"/>
</svg>
