<svg width="92" height="64" viewBox="0 0 92 64" fill="none" xmlns="http://www.w3.org/2000/svg">
<g opacity="0.9">
<path d="M37.8856 6.98714C40.8182 3.93149 44.901 2.03644 49.4165 2.03644C55.419 2.03644 60.656 5.38354 63.4448 10.3524C65.8683 9.26949 68.5509 8.66717 71.3734 8.66717C82.1997 8.66717 90.9767 17.5207 90.9767 28.4415C90.9767 39.3636 82.1997 48.2171 71.3734 48.2171C70.0522 48.2171 68.7608 48.0849 67.5121 47.8323C65.0562 52.2131 60.3762 55.1729 55.0045 55.1729C52.7558 55.1729 50.6289 54.6535 48.7352 53.7299C46.2456 59.586 40.4452 63.6922 33.6849 63.6922C26.6449 63.6922 20.6449 59.2376 18.3419 52.9903C17.3354 53.204 16.2927 53.3154 15.2228 53.3154C6.84076 53.3154 0.0455322 46.4502 0.0455322 37.9802C0.0455322 32.3041 3.09859 27.3482 7.63479 24.6967C6.70087 22.5478 6.18145 20.1761 6.18145 17.6826C6.18145 7.94179 14.0894 0.0455402 23.8431 0.0455402C29.5697 0.0455402 34.659 2.7683 37.8856 6.98714Z" fill="#00A1E0"/>
<path d="M13.2161 33.0511C13.1591 33.2001 13.2368 33.2312 13.255 33.2571C13.4259 33.3814 13.5995 33.4708 13.7744 33.5705C14.7018 34.0628 15.5775 34.2065 16.4933 34.2065C18.3585 34.2065 19.5165 33.2143 19.5165 31.6172V31.5861C19.5165 30.1095 18.2096 29.5732 16.9829 29.1859L16.8236 29.1341C15.8987 28.8336 15.1008 28.5745 15.1008 27.9657V27.9333C15.1008 27.4126 15.5671 27.0292 16.2899 27.0292C17.093 27.0292 18.0463 27.296 18.6603 27.6354C18.6603 27.6354 18.8404 27.752 18.9064 27.5771C18.9427 27.4839 19.2536 26.6471 19.286 26.5564C19.3209 26.458 19.2588 26.3854 19.1953 26.3466C18.4945 25.9204 17.5256 25.629 16.523 25.629L16.3365 25.6303C14.6293 25.6303 13.4376 26.6613 13.4376 28.1393V28.1704C13.4376 29.7286 14.7524 30.2338 15.9842 30.5861L16.1824 30.647C17.08 30.9229 17.8533 31.16 17.8533 31.7921V31.8232C17.8533 32.4009 17.3508 32.8309 16.5399 32.8309C16.2251 32.8309 15.2213 32.8244 14.1371 32.1392C14.0063 32.0628 13.9298 32.0071 13.8288 31.9462C13.7757 31.9125 13.6423 31.8542 13.584 32.0304L13.2161 33.0511Z" fill="white"/>
<path d="M40.5226 33.0511C40.4656 33.2001 40.5434 33.2312 40.5615 33.2571C40.7325 33.3814 40.906 33.4708 41.0809 33.5705C42.0084 34.0628 42.884 34.2065 43.7998 34.2065C45.665 34.2065 46.823 33.2143 46.823 31.6172V31.5861C46.823 30.1095 45.5161 29.5732 44.2894 29.1859L44.1301 29.1341C43.2052 28.8336 42.4073 28.5745 42.4073 27.9657V27.9333C42.4073 27.4126 42.8736 27.0292 43.5964 27.0292C44.3995 27.0292 45.3529 27.296 45.9668 27.6354C45.9668 27.6354 46.1469 27.752 46.2129 27.5771C46.2492 27.4839 46.5601 26.6471 46.5925 26.5564C46.6275 26.458 46.5653 26.3854 46.5018 26.3466C45.801 25.9204 44.8321 25.629 43.8296 25.629L43.643 25.6303C41.9358 25.6303 40.7441 26.6613 40.7441 28.1393V28.1704C40.7441 29.7286 42.0589 30.2338 43.2907 30.5861L43.4889 30.647C44.3866 30.9229 45.1612 31.16 45.1612 31.7921V31.8232C45.1612 32.4009 44.6573 32.8309 43.8464 32.8309C43.5316 32.8309 42.5278 32.8244 41.4436 32.1392C41.3128 32.0628 41.235 32.0097 41.1366 31.9462C41.1029 31.9242 40.9449 31.8633 40.8905 32.0304L40.5226 33.0511Z" fill="white"/>
<path d="M59.164 29.9226C59.164 30.8255 58.9956 31.5366 58.664 32.0392C58.3363 32.5366 57.8402 32.7788 57.1485 32.7788C56.4555 32.7788 55.962 32.5379 55.6395 32.0392C55.313 31.5379 55.1472 30.8255 55.1472 29.9226C55.1472 29.0211 55.313 28.3113 55.6395 27.8139C55.962 27.3216 56.4555 27.082 57.1485 27.082C57.8402 27.082 58.3363 27.3216 58.6653 27.8139C58.9956 28.3113 59.164 29.0211 59.164 29.9226ZM60.721 28.2491C60.5681 27.7323 60.3298 27.2763 60.0125 26.8968C59.6951 26.516 59.2935 26.2103 58.8169 25.9875C58.3415 25.766 57.7793 25.6533 57.1485 25.6533C56.5164 25.6533 55.9542 25.766 55.4788 25.9875C55.0022 26.2103 54.6006 26.516 54.282 26.8968C53.9659 27.2776 53.7276 27.7336 53.5734 28.2491C53.4219 28.7633 53.3455 29.3255 53.3455 29.9226C53.3455 30.5198 53.4219 31.0832 53.5734 31.5962C53.7276 32.1117 53.9646 32.5677 54.2833 32.9485C54.6006 33.3293 55.0035 33.6337 55.4788 33.85C55.9555 34.0664 56.5164 34.1765 57.1485 34.1765C57.7793 34.1765 58.3402 34.0664 58.8169 33.85C59.2923 33.6337 59.6951 33.3293 60.0125 32.9485C60.3298 32.569 60.5681 32.113 60.721 31.5962C60.8738 31.0819 60.9503 30.5185 60.9503 29.9226C60.9503 29.3268 60.8738 28.7633 60.721 28.2491Z" fill="white"/>
<path d="M73.5066 32.5377C73.4548 32.3862 73.3085 32.4432 73.3085 32.4432C73.0818 32.53 72.8409 32.6103 72.5844 32.6504C72.324 32.6906 72.0378 32.7113 71.7308 32.7113C70.9769 32.7113 70.3785 32.4872 69.9497 32.0442C69.5197 31.6012 69.2787 30.8849 69.2813 29.916C69.2839 29.0339 69.4963 28.3707 69.8785 27.8655C70.258 27.3629 70.8357 27.1052 71.6064 27.1052C72.2489 27.1052 72.7385 27.179 73.2515 27.3409C73.2515 27.3409 73.3745 27.394 73.4328 27.2334C73.5688 26.8552 73.6699 26.5845 73.8149 26.1687C73.8564 26.0508 73.7553 26.0003 73.7191 25.986C73.517 25.907 73.0403 25.7788 72.6802 25.7244C72.3434 25.6726 71.9497 25.6454 71.5119 25.6454C70.8577 25.6454 70.2748 25.7568 69.7761 25.9795C69.2787 26.201 68.8565 26.5067 68.5223 26.8876C68.1881 27.2684 67.9342 27.7243 67.7645 28.2399C67.5961 28.7541 67.5106 29.3189 67.5106 29.916C67.5106 31.2074 67.8591 32.2515 68.5469 33.0157C69.236 33.7825 70.2709 34.1724 71.6207 34.1724C72.4186 34.1724 73.2372 34.0105 73.8253 33.7786C73.8253 33.7786 73.938 33.7242 73.8888 33.5934L73.5066 32.5377Z" fill="white"/>
<path d="M76.2309 29.0578C76.3047 28.5565 76.4433 28.1394 76.657 27.8143C76.9795 27.3207 77.4718 27.05 78.1635 27.05C78.8552 27.05 79.3124 27.322 79.6401 27.8143C79.8577 28.1394 79.9523 28.5746 79.9899 29.0578H76.2309ZM81.473 27.9555C81.3409 27.4568 81.0132 26.9529 80.7981 26.7223C80.4588 26.357 80.1272 26.1019 79.7982 25.9594C79.3681 25.7754 78.8526 25.6537 78.2878 25.6537C77.6298 25.6537 77.0327 25.7638 76.5482 25.9918C76.0625 26.2197 75.6544 26.5306 75.3345 26.9179C75.0146 27.3039 74.7736 27.7637 74.6208 28.2858C74.4666 28.8052 74.3889 29.3712 74.3889 29.9684C74.3889 30.5759 74.4692 31.1419 74.6285 31.651C74.7892 32.1639 75.0456 32.616 75.3928 32.9903C75.7386 33.3673 76.1842 33.6626 76.7179 33.8686C77.2477 34.0732 77.8915 34.1794 78.6311 34.1781C80.1531 34.173 80.9549 33.8336 81.2852 33.651C81.3435 33.6186 81.3992 33.5616 81.3292 33.3984L80.9847 32.4334C80.9329 32.2896 80.7865 32.3427 80.7865 32.3427C80.4095 32.4826 79.8733 32.7339 78.6233 32.7313C77.806 32.73 77.1998 32.4891 76.8202 32.1121C76.4303 31.7261 76.2399 31.1588 76.2062 30.3583L81.4769 30.3634C81.4769 30.3634 81.6155 30.3609 81.6297 30.2261C81.6349 30.1691 81.8111 29.1433 81.473 27.9555Z" fill="white"/>
<path d="M34.0207 29.0578C34.0958 28.5565 34.2331 28.1394 34.4468 27.8143C34.7693 27.3207 35.2616 27.05 35.9533 27.05C36.645 27.05 37.1022 27.322 37.4312 27.8143C37.6475 28.1394 37.7421 28.5746 37.7797 29.0578H34.0207ZM39.2615 27.9555C39.1294 27.4568 38.803 26.9529 38.5879 26.7223C38.2486 26.357 37.917 26.1019 37.588 25.9594C37.1579 25.7754 36.6424 25.6537 36.0776 25.6537C35.4209 25.6537 34.8225 25.7638 34.338 25.9918C33.8523 26.2197 33.4442 26.5306 33.1243 26.9179C32.8043 27.3039 32.5634 27.7637 32.4106 28.2858C32.2577 28.8052 32.1787 29.3712 32.1787 29.9684C32.1787 30.5759 32.259 31.1419 32.4183 31.651C32.579 32.1639 32.8354 32.616 33.1826 32.9903C33.5284 33.3673 33.974 33.6626 34.5077 33.8686C35.0375 34.0732 35.6812 34.1794 36.4209 34.1781C37.9429 34.173 38.7447 33.8336 39.075 33.651C39.1333 33.6186 39.189 33.5616 39.119 33.3984L38.7758 32.4334C38.7226 32.2896 38.5763 32.3427 38.5763 32.3427C38.1993 32.4826 37.6644 32.7339 36.4118 32.7313C35.5958 32.73 34.9895 32.4891 34.61 32.1121C34.2201 31.7261 34.0297 31.1588 33.996 30.3583L39.2667 30.3634C39.2667 30.3634 39.4053 30.3609 39.4195 30.2261C39.4247 30.1691 39.6009 29.1433 39.2615 27.9555Z" fill="white"/>
<path d="M22.6282 32.5089C22.4222 32.3444 22.3937 32.3029 22.3238 32.1967C22.2201 32.0348 22.167 31.8042 22.167 31.5115C22.167 31.0478 22.3199 30.7149 22.6372 30.4908C22.6333 30.4921 23.0906 30.0957 24.1657 30.11C24.9209 30.1203 25.5957 30.2317 25.5957 30.2317V32.628H25.597C25.597 32.628 24.9273 32.7718 24.1735 32.8172C23.1009 32.8819 22.6243 32.5076 22.6282 32.5089ZM24.7253 28.8056C24.5115 28.79 24.2343 28.781 23.9027 28.781C23.4507 28.781 23.0142 28.838 22.6048 28.9481C22.1929 29.0582 21.8225 29.2304 21.5038 29.4584C21.1839 29.6877 20.9261 29.9804 20.7396 30.3276C20.5531 30.6747 20.4585 31.084 20.4585 31.5426C20.4585 32.0089 20.5388 32.4143 20.6994 32.7459C20.86 33.0788 21.0919 33.356 21.3872 33.5697C21.68 33.7835 22.0414 33.9402 22.4611 34.0348C22.8743 34.1293 23.3432 34.1772 23.8561 34.1772C24.3963 34.1772 24.9351 34.1332 25.4571 34.0438C25.974 33.9557 26.6087 33.8275 26.7848 33.7874C26.9597 33.7459 27.154 33.6928 27.154 33.6928C27.2848 33.6604 27.2744 33.5205 27.2744 33.5205L27.2719 28.7006C27.2719 27.6437 26.9895 26.86 26.4338 26.3743C25.8807 25.8898 25.0659 25.645 24.0128 25.645C23.6178 25.645 22.9818 25.6994 22.6009 25.7758C22.6009 25.7758 21.4494 25.9986 20.9753 26.3691C20.9753 26.3691 20.8717 26.4338 20.9287 26.5789L21.3017 27.5815C21.3484 27.711 21.474 27.667 21.474 27.667C21.474 27.667 21.5142 27.6514 21.5608 27.6242C22.575 27.0724 23.8574 27.0893 23.8574 27.0893C24.4273 27.0893 24.8652 27.2033 25.1605 27.4299C25.4481 27.6501 25.5944 27.983 25.5944 28.6851V28.9079C25.1411 28.8431 24.7253 28.8056 24.7253 28.8056Z" fill="white"/>
<path d="M67.2353 26.0898C67.2754 25.9706 67.1912 25.9137 67.1563 25.9007C67.0669 25.8657 66.6187 25.7712 66.2729 25.7491C65.611 25.709 65.2431 25.8204 64.9141 25.9681C64.5877 26.1157 64.225 26.3541 64.0229 26.6248V25.9836C64.0229 25.8942 63.9594 25.823 63.8713 25.823H62.5203C62.4322 25.823 62.3688 25.8942 62.3688 25.9836V33.8449C62.3688 33.933 62.4413 34.0055 62.5294 34.0055H63.9141C64.0022 34.0055 64.0734 33.933 64.0734 33.8449V29.9175C64.0734 29.3903 64.1317 28.8644 64.2483 28.5341C64.3623 28.2077 64.5177 27.946 64.7094 27.7582C64.9024 27.5717 65.1213 27.4408 65.361 27.367C65.6058 27.2919 65.8765 27.2673 66.0682 27.2673C66.3441 27.2673 66.6472 27.3385 66.6472 27.3385C66.7482 27.3502 66.8052 27.288 66.8389 27.196C66.9296 26.9551 67.1861 26.2336 67.2353 26.0898Z" fill="white"/>
<path d="M54.2378 22.4464C54.0694 22.3945 53.9165 22.3596 53.7171 22.322C53.515 22.2857 53.2741 22.2676 53.0007 22.2676C52.0474 22.2676 51.2961 22.537 50.7689 23.0681C50.2443 23.5966 49.8881 24.401 49.7093 25.4593L49.6446 25.8155H48.4477C48.4477 25.8155 48.3026 25.8103 48.2715 25.9683L48.076 27.0655C48.0617 27.1691 48.107 27.2351 48.2469 27.2351H49.4114L48.2301 33.8309C48.1381 34.362 48.0319 34.7985 47.914 35.1301C47.7988 35.4565 47.6861 35.7013 47.5462 35.8801C47.4115 36.0511 47.2845 36.178 47.0643 36.2518C46.883 36.3127 46.6731 36.3412 46.4439 36.3412C46.3169 36.3412 46.1472 36.3205 46.0216 36.2946C45.8972 36.27 45.8312 36.2428 45.7366 36.2026C45.7366 36.2026 45.6006 36.1508 45.5462 36.2868C45.5035 36.3995 45.1926 37.2531 45.155 37.358C45.1187 37.463 45.1706 37.5446 45.2366 37.5692C45.3921 37.6236 45.5073 37.6598 45.7185 37.7104C46.0112 37.779 46.2586 37.7829 46.4905 37.7829C46.9749 37.7829 47.4179 37.7142 47.7845 37.5821C48.1524 37.4487 48.4736 37.2168 48.7586 36.9034C49.0656 36.564 49.2586 36.2091 49.4425 35.7233C49.6252 35.2441 49.7819 34.6482 49.9062 33.9539L51.094 27.2351H52.8298C52.8298 27.2351 52.9761 27.2403 53.0059 27.081L53.2028 25.9852C53.2158 25.8802 53.1717 25.8155 53.0305 25.8155H51.3453C51.3544 25.7779 51.4308 25.1847 51.6238 24.6264C51.7067 24.3893 51.8622 24.1963 51.993 24.0642C52.1225 23.9347 52.2715 23.8427 52.4347 23.7896C52.6018 23.7352 52.7922 23.7093 53.0007 23.7093C53.1588 23.7093 53.3155 23.7274 53.4334 23.752C53.5966 23.787 53.6601 23.8051 53.7028 23.8181C53.8751 23.8699 53.8984 23.8194 53.9321 23.7365L54.3349 22.6303C54.3764 22.5111 54.274 22.4606 54.2378 22.4464Z" fill="white"/>
<path d="M30.6923 33.8453C30.6923 33.9333 30.6288 34.0046 30.5407 34.0046H29.1431C29.055 34.0046 28.9928 33.9333 28.9928 33.8453V22.5967C28.9928 22.5086 29.055 22.4374 29.1431 22.4374H30.5407C30.6288 22.4374 30.6923 22.5086 30.6923 22.5967V33.8453Z" fill="white"/>
</g>
</svg>
