<svg width="57" height="64" viewBox="0 0 57 64" fill="none" xmlns="http://www.w3.org/2000/svg">
<g opacity="0.9">
<path d="M49.0491 12.5676C49.0051 12.2476 48.7248 12.0706 48.4931 12.051C48.2618 12.0318 43.368 11.669 43.368 11.669C43.368 11.669 39.9692 8.29477 39.5962 7.92129C39.2229 7.54803 38.494 7.66156 38.211 7.74485C38.1694 7.75713 37.4684 7.97345 36.309 8.33225C35.1736 5.06518 33.1699 2.06288 29.6449 2.06288C29.5475 2.06288 29.4474 2.06682 29.3472 2.07252C28.3447 0.746715 27.1028 0.170715 26.0302 0.170715C17.8187 0.170715 13.8956 10.4359 12.6656 15.6524C9.47478 16.6411 7.20804 17.344 6.91851 17.4349C5.13746 17.9936 5.08114 18.0497 4.84727 19.728C4.67127 20.9986 0.0111084 57.0378 0.0111084 57.0378L36.3241 63.8415L55.9997 59.5851C55.9997 59.5851 49.0925 12.8876 49.0491 12.5676ZM34.302 8.95296L31.2293 9.90398C31.2304 9.68743 31.2315 9.47439 31.2315 9.2414C31.2315 7.21093 30.9496 5.57608 30.4975 4.28009C32.3138 4.50803 33.5234 6.57466 34.302 8.95296ZM28.2443 4.68272C28.7493 5.94803 29.0776 7.76392 29.0776 10.2143C29.0776 10.3397 29.0765 10.4543 29.0754 10.5703C27.0772 11.1892 24.9058 11.8612 22.7296 12.5354C23.9515 7.81959 26.2419 5.54189 28.2443 4.68272ZM25.8046 2.37324C26.1591 2.37324 26.5161 2.49356 26.8578 2.72874C24.2261 3.9671 21.4053 7.086 20.2141 13.3144L15.198 14.8679C16.5932 10.1172 19.9066 2.37324 25.8046 2.37324Z" fill="#95BF46"/>
<path d="M48.4932 12.0511C48.2619 12.0318 43.3681 11.669 43.3681 11.669C43.3681 11.669 39.9693 8.29478 39.5963 7.9213C39.4567 7.78234 39.2684 7.7111 39.0716 7.68042L36.3259 63.8411L55.9998 59.5851C55.9998 59.5851 49.0926 12.8877 49.0492 12.5677C49.0052 12.2477 48.7248 12.0706 48.4932 12.0511Z" fill="#5E8E3E"/>
<path d="M29.6449 22.9227L27.2189 30.1394C27.2189 30.1394 25.0933 29.0049 22.4877 29.0049C18.6678 29.0049 18.4756 31.4021 18.4756 32.0061C18.4756 35.3021 27.0674 36.565 27.0674 44.2853C27.0674 50.3594 23.2149 54.2707 18.0204 54.2707C11.787 54.2707 8.59924 50.3912 8.59924 50.3912L10.2683 44.8767C10.2683 44.8767 13.545 47.6898 16.3099 47.6898C18.1166 47.6898 18.8515 46.2674 18.8515 45.228C18.8515 40.9286 11.8028 40.7369 11.8028 33.6721C11.8028 27.726 16.0706 21.9719 24.6856 21.9719C28.005 21.9719 29.6449 22.9227 29.6449 22.9227Z" fill="white"/>
</g>
</svg>
