<svg width="64" height="64" viewBox="0 0 64 64" fill="none" xmlns="http://www.w3.org/2000/svg">
<g opacity="0.9" clip-path="url(#clip0_275_66)">
<path d="M4.53057 31.8828C4.53057 42.7094 10.82 52.0655 19.9406 56.4993L6.89785 20.7516C5.33434 24.2539 4.52766 28.0471 4.53057 31.8828ZM50.3315 30.5024C50.3315 27.1224 49.1176 24.7813 48.0767 22.9594C46.6906 20.7063 45.3915 18.7983 45.3915 16.5453C45.3915 14.0309 47.2978 11.6904 49.983 11.6904C50.1043 11.6904 50.219 11.7054 50.3373 11.7124C45.4727 7.25402 38.9916 4.53211 31.8733 4.53211C22.3209 4.53211 13.9169 9.4348 9.0279 16.8606C9.66934 16.8799 10.2738 16.8931 10.7875 16.8931C13.6472 16.8931 18.0743 16.5463 18.0743 16.5463C19.5484 16.4593 19.7221 18.6248 18.2498 18.7993C18.2498 18.7993 16.7684 18.9736 15.1201 19.0599L25.0776 48.6869L31.0613 30.735L26.8012 19.0592C25.3289 18.9729 23.934 18.7986 23.934 18.7986C22.4606 18.7121 22.6334 16.4585 24.1067 16.5455C24.1067 16.5455 28.6223 16.8926 31.3088 16.8926C34.1685 16.8926 38.5959 16.5455 38.5959 16.5455C40.0707 16.4585 40.2442 18.624 38.7714 18.7986C38.7714 18.7986 37.287 18.9729 35.6416 19.0592L45.523 48.4616L48.2502 39.3449C49.4321 35.5617 50.3318 32.8445 50.3318 30.5027L50.3315 30.5024ZM32.353 34.2754L24.1492 58.1219C26.6574 58.8609 29.2586 59.2361 31.8733 59.2362C35.0572 59.2362 38.1107 58.6856 40.9531 57.6858C40.8773 57.5662 40.8121 57.4401 40.7584 57.309L32.353 34.2754ZM55.8652 18.7603C55.9827 19.6315 56.0495 20.5668 56.0495 21.5728C56.0495 24.3484 55.5313 27.4685 53.9704 31.3697L45.6185 55.5256C53.7472 50.7836 59.2147 41.974 59.2147 31.8835C59.2152 27.1281 58.001 22.6563 55.8652 18.7603ZM31.8733 0C14.2987 0 0 14.3025 0 31.8828C0 49.4653 14.2987 63.7673 31.8733 63.7673C49.4471 63.7673 63.7478 49.4653 63.7478 31.8828C63.7475 14.3025 49.4471 0 31.8733 0ZM31.8733 62.306C15.1048 62.306 1.46136 48.6581 1.46136 31.8828C1.46136 15.1087 15.1041 1.46186 31.8733 1.46186C48.6412 1.46186 62.2834 15.1087 62.2834 31.8828C62.2834 48.6581 48.6412 62.306 31.8733 62.306Z" fill="#464342"/>
</g>
<defs>
<clipPath id="clip0_275_66">
<rect width="64" height="63.7656" fill="white"/>
</clipPath>
</defs>
</svg>
